#Comment line ignore any data following # character
#Hierarchical Translation and Rotation (.htr) file
[Header]		#Header keywords are followed by a single value
FileType htr		#Single word string
DataType HTRS		#Translation followed by rotation and scale data
FileVersion 1		#integer
NumSegments 18		#integer
NumFrames 4		#integer
DataFrameRate 60		#integer, data frame rate in this file
EulerRotationOrder ZYX
CalibrationUnits mm
RotationUnits Degrees
GlobalAxisofGravity Y
BoneLengthAxis Y
ScaleFactor 1.000000
[SegmentNames&Hierarchy]
#CHILD	PARENT
Head	Neck
Neck	Chest
Chest	Hips
LeftShoulder	LeftCollar
RightShoulder	RightCollar
LeftElbow	LeftShoulder
RightElbow	RightShoulder
LeftWrist	LeftElbow
RightWrist	RightElbow
Hips	GLOBAL
LeftHip	Hips
RightHip	Hips
LeftKnee	LeftHip
RightKnee	RightHip
LeftAnkle	LeftKnee
RightAnkle	RightKnee
LeftCollar	Chest
RightCollar	Chest
[BasePosition]
#SegmentName Tx, Ty, Tz, Rx, Ry, Rz, BoneLength
Head	0.000003	141.966248	0.000002	-37.745777	-8.179454	6.203664	80.000046
Neck	0.000000	379.566772	0.000000	32.855431	-5.194619	1.823337	141.966263
Chest	0.000000	94.891693	0.000000	0.000002	12.877405	-0.000012	379.566803
LeftShoulder	0.000003	154.023666	0.000005	171.957962	-79.977570	-157.094910	215.219986
RightShoulder	-0.000001	146.408707	-0.000001	20.020029	60.865143	-8.207462	240.139038
LeftElbow	0.000007	215.219971	-0.000011	-24.162848	54.442085	-17.491318	336.440125
RightElbow	-0.000021	240.139038	0.000007	-21.925606	-43.617706	23.102211	322.101532
LeftWrist	-0.000014	336.440094	0.000002	173.178864	-0.531422	156.628021	100.348160
RightWrist	0.000005	322.101501	0.000026	1.868945	1.747480	14.125610	109.739998
Hips	377.886597	1077.530640	704.474976	-179.011169	36.455761	-178.006714	94.891701
LeftHip	95.336761	5.238981	-8.336124	-0.485735	-9.415434	-176.117065	525.916443
RightHip	-96.119095	-4.691877	-4.857316	2.457280	-1.423929	-179.125565	528.302429
LeftKnee	0.000004	525.916443	0.000001	-10.646533	-14.541370	-1.855900	514.711975
RightKnee	-0.000002	528.302429	0.000004	-12.768950	2.118825	-3.063609	521.764099
LeftAnkle	0.000003	514.711975	0.000009	97.965164	-0.000001	0.000000	253.446518
RightAnkle	0.000001	521.764099	-0.000002	99.242271	0.000002	0.000000	256.283173
LeftCollar	19.999998	366.483276	-15.126845	169.660507	-4.312743	90.901894	154.023682
RightCollar	-19.999996	366.483215	-15.126822	171.369568	4.171492	-91.645760	146.408707
#Beginning of Data. Separated by tabs
[Head]
#Fr	Tx	Ty	Tz	Rx	Ry	Rz	SF
161	-0.000012	16.681732	0.000001	-7.195681	11.905148	11.733735	1.000000
162	0.000005	16.572296	-0.000002	-7.288425	12.664489	12.159609	1.000000
163	-0.000007	16.677460	0.000006	-7.664036	13.296576	12.363721	1.000000
164	-0.000002	16.656281	-0.000007	-8.013092	13.878378	12.325262	0.999999
[Neck]
#Fr	Tx	Ty	Tz	Rx	Ry	Rz	SF
161	0.000015	-14.995026	-0.000007	-6.059815	2.489506	-9.393558	1.117505
162	0.000018	-14.335602	0.000000	-6.043390	2.686038	-10.091749	1.116734
163	-0.000003	-13.770416	0.000007	-5.916533	2.870990	-10.685666	1.117475
164	-0.000018	-13.188568	0.000007	-5.692999	3.087794	-11.204762	1.117325
[Chest]
#Fr	Tx	Ty	Tz	Rx	Ry	Rz	SF
161	0.000000	-3.748711	-0.000001	0.000014	-5.946226	-0.000012	0.960494
162	0.000001	-3.583900	-0.000002	0.000002	-6.208842	0.000006	0.962232
163	-0.000000	-3.442604	0.000001	-0.000005	-6.223581	0.000012	0.963721
164	-0.000000	-3.297073	0.000000	-0.000016	-6.116161	0.000013	0.965254
[LeftShoulder]
#Fr	Tx	Ty	Tz	Rx	Ry	Rz	SF
161	-0.000003	6.298019	-0.000004	31.306686	-7.858890	38.357258	1.105488
162	-0.000007	5.249756	-0.000002	27.802837	-7.125230	41.816273	1.104445
163	-0.000010	4.114227	-0.000004	24.563135	-6.103721	44.821190	1.103646
164	-0.000003	2.916687	0.000000	21.685310	-4.847662	47.398880	1.102961
[RightShoulder]
#Fr	Tx	Ty	Tz	Rx	Ry	Rz	SF
161	0.000001	12.622620	-0.000004	48.043720	-42.438450	-66.979446	1.113477
162	0.000005	12.566895	-0.000004	48.481686	-42.917446	-67.616646	1.112338
163	0.000003	12.411362	0.000010	49.093498	-43.538265	-68.380013	1.111245
164	-0.000001	12.150208	-0.000011	49.831249	-44.220501	-69.187538	1.110197
[LeftElbow]
#Fr	Tx	Ty	Tz	Rx	Ry	Rz	SF
161	-0.000025	22.703079	0.000027	-75.067383	-52.168228	74.009529	0.823528
162	-0.000028	22.478668	0.000047	-73.556648	-50.604443	70.729706	0.836101
163	-0.000002	22.306671	0.000015	-72.229713	-49.240379	67.747437	0.849163
164	-0.000033	22.159195	0.000021	-70.771530	-47.973396	64.626419	0.861113
[RightElbow]
#Fr	Tx	Ty	Tz	Rx	Ry	Rz	SF
161	0.000013	27.250336	-0.000014	-20.081778	30.543613	4.526968	0.915892
162	0.000027	26.976776	-0.000017	-20.620369	30.224220	5.242076	0.915382
163	0.000035	26.714294	0.000006	-20.968336	29.614740	6.125754	0.914199
164	0.000015	26.462738	-0.000039	-21.232336	28.928778	7.046866	0.912741
[LeftWrist]
#Fr	Tx	Ty	Tz	Rx	Ry	Rz	SF
161	-0.000012	-59.372284	0.000018	40.194244	-86.100113	-60.234020	0.929601
162	-0.000017	-55.142303	0.000052	60.171017	-85.600304	-79.845322	0.939294
163	0.000015	-50.747681	0.000008	76.099800	-84.618576	-95.154175	0.947707
164	0.000018	-46.727264	0.000017	86.118698	-83.458527	-104.436134	0.955951
[RightWrist]
#Fr	Tx	Ty	Tz	Rx	Ry	Rz	SF
161	-0.000011	-27.091370	-0.000008	-78.849487	85.685318	-86.349640	0.957637
162	-0.000016	-27.255432	-0.000008	-84.742195	85.105751	-90.759926	0.959970
163	-0.000010	-27.636627	-0.000033	-89.978302	84.463585	-94.542404	0.964435
164	0.000002	-28.106049	-0.000042	-93.806244	83.818001	-97.208382	0.968922
[Hips]
#Fr	Tx	Ty	Tz	Rx	Ry	Rz	SF
161	-1071.611450	36.807495	-709.350586	132.519943	-64.545525	-126.870346	0.960495
162	-1069.878662	36.376099	-711.944885	135.011200	-63.815399	-129.589722	0.962232
163	-1067.979004	36.010254	-714.439331	137.607529	-62.966007	-132.435883	0.963721
164	-1065.276367	35.498779	-716.061707	140.036972	-62.097790	-135.245483	0.965254
[LeftHip]
#Fr	Tx	Ty	Tz	Rx	Ry	Rz	SF
161	0.489578	9.871525	0.171918	7.349761	-1.356061	13.272062	0.977917
162	0.404076	9.599428	0.277482	6.503712	-1.296385	12.981079	0.976888
163	0.447044	9.328432	0.391381	5.601394	-1.207884	12.639620	0.975788
164	0.451431	8.880987	0.014640	4.542743	-0.987590	12.226013	0.974521
[RightHip]
#Fr	Tx	Ty	Tz	Rx	Ry	Rz	SF
161	0.470169	-11.630732	-1.526728	14.943719	-0.780287	7.953068	1.024010
162	0.531166	-11.321377	-1.391389	14.844671	-0.736002	7.863132	1.023878
163	0.428734	-10.984169	-1.121789	14.694877	-0.720376	7.762632	1.024223
164	0.370804	-10.533997	-1.432839	14.347868	-0.763826	7.576878	1.024329
[LeftKnee]
#Fr	Tx	Ty	Tz	Rx	Ry	Rz	SF
161	0.000012	-11.614136	-0.000013	-6.139379	-15.866402	2.971060	0.981464
162	0.000004	-12.155212	-0.000006	-5.445713	-17.148138	2.389036	0.980719
163	-0.000014	-12.733582	0.000001	-4.721465	-18.485935	1.736701	0.980445
164	0.000030	-13.399902	0.000006	-3.949630	-19.927523	1.042772	0.980040
[RightKnee]
#Fr	Tx	Ty	Tz	Rx	Ry	Rz	SF
161	0.000007	12.684570	0.000003	-9.329073	2.874836	1.109721	0.965405
162	0.000008	12.614929	0.000000	-9.129449	2.424947	1.144162	0.964343
163	-0.000004	12.797058	-0.000012	-8.875868	1.841813	1.166500	0.963502
164	0.000004	12.852844	-0.000032	-8.517258	1.287741	1.175386	0.962960
[LeftAnkle]
#Fr	Tx	Ty	Tz	Rx	Ry	Rz	SF
161	-0.000017	-9.540558	-0.000007	0.417706	-0.000000	-0.000000	1.030468
162	0.000001	-9.924286	-0.000019	0.249814	-0.000001	-0.000002	1.029967
163	-0.000013	-10.065216	0.000024	0.109463	-0.000000	-0.000000	1.029874
164	0.000022	-10.273773	0.000010	-0.016690	-0.000000	-0.000001	1.029552
[RightAnkle]
#Fr	Tx	Ty	Tz	Rx	Ry	Rz	SF
161	-0.000005	-18.050568	-0.000010	-16.313873	0.000001	0.000003	1.004038
162	-0.000020	-18.604706	-0.000016	-16.658615	0.000001	0.000004	1.004907
163	0.000015	-19.043457	-0.000008	-16.947069	0.000001	0.000001	1.005465
164	0.000006	-19.326263	-0.000002	-17.169121	-0.000000	0.000003	1.005881
[LeftCollar]
#Fr	Tx	Ty	Tz	Rx	Ry	Rz	SF
161	0.000010	-15.516724	0.467350	-0.527370	-2.603489	4.850663	1.040890
162	0.000031	-14.910400	0.516825	-0.730131	-2.720173	3.906672	1.034084
163	0.000029	-14.397522	0.565969	-0.884893	-2.841453	2.942538	1.026711
164	-0.000013	-13.837036	0.586164	-0.965052	-2.853653	2.008041	1.018936
[RightCollar]
#Fr	Tx	Ty	Tz	Rx	Ry	Rz	SF
161	0.000011	-15.516602	0.467368	-8.188711	1.878254	-4.573375	1.086215
162	0.000048	-14.910309	0.516829	-8.306045	2.058677	-4.611014	1.085834
163	0.000019	-14.397430	0.565951	-8.440603	2.230713	-4.690913	1.084772
164	-0.000017	-13.837036	0.586141	-8.578258	2.279008	-4.809422	1.082988
[EndOfFile]
